<?xml version="1.0" encoding="utf-8"?><!DOCTYPE svg PUBLIC "-//W3C//DTD SVG 1.1//EN" "http://www.w3.org/Graphics/SVG/1.1/DTD/svg11.dtd"><svg version="1.1" xmlns="http://www.w3.org/2000/svg" xmlns:xlink="http://www.w3.org/1999/xlink" x="0px" y="0px" viewBox="0 0 100 72.91624999999999" enable-background="new 0 0 100 58.333" xml:space="preserve"><g><path fill="#010101" d="M89.654,3.125c0,1.906-1.426,3.125-3.182,3.125H3.181C1.425,6.25,0,5.031,0,3.125l0,0
		C0,1.219,1.425,0,3.181,0h83.29C88.232,0,89.654,1.219,89.654,3.125L89.654,3.125z"/><path fill="#010101" d="M86.206,13.542c0,1.906-1.424,3.125-3.182,3.125H3.181C1.425,16.667,0,15.448,0,13.542l0,0
		c0-1.906,1.425-3.125,3.181-3.125h79.843C84.782,10.417,86.206,11.635,86.206,13.542L86.206,13.542z"/><path fill="#010101" d="M100,23.958c0,1.907-1.424,3.125-3.182,3.125H3.181C1.425,27.083,0,25.865,0,23.958l0,0
		c0-1.906,1.425-3.125,3.181-3.125h93.637C98.576,20.833,100,22.052,100,23.958L100,23.958z"/><path fill="#010101" d="M65.518,34.375c0,1.906-1.427,3.125-3.183,3.125H3.181C1.425,37.5,0,36.281,0,34.375l0,0
		c0-1.906,1.425-3.125,3.181-3.125h59.154C64.095,31.25,65.518,32.468,65.518,34.375L65.518,34.375z"/><path fill="#010101" d="M93.103,44.792c0,1.904-1.426,3.125-3.182,3.125H3.181C1.425,47.917,0,46.696,0,44.792l0,0
		c0-1.906,1.425-3.125,3.181-3.125h86.74C91.679,41.667,93.103,42.885,93.103,44.792L93.103,44.792z"/><path fill="#010101" d="M58.622,55.208c0,1.906-1.426,3.125-3.182,3.125H3.181C1.425,58.333,0,57.115,0,55.208l0,0
		c0-1.904,1.425-3.125,3.181-3.125h52.255C57.196,52.083,58.622,53.304,58.622,55.208L58.622,55.208z"/></g><text x="0" y="73.333" fill="#000000" font-size="5px" font-weight="bold" font-family="'Helvetica Neue', Helvetica, Arial-Unicode, Arial, Sans-serif">Created by Julien Miclo</text><text x="0" y="78.333" fill="#000000" font-size="5px" font-weight="bold" font-family="'Helvetica Neue', Helvetica, Arial-Unicode, Arial, Sans-serif">from the Noun Project</text></svg>