<svg xmlns="http://www.w3.org/2000/svg" data-name="Layer 1" viewBox="0 0 512 640" x="0px" y="0px"><title>p6</title><path d="M255.46,461.05H52.14C32,461.05,16,452.87,6.44,435.18A55.61,55.61,0,0,1,.32,410C-0.14,333.15,0,256.29.06,179.43c0-29.76,20.65-50.89,50.69-51.57,17.62-.4,35.26-0.09,52.89-0.1,19.91,0,25.09-3.74,31.27-22.35,4.17-12.54,8.31-25.09,12.59-37.59,4-11.58,11.32-16.92,23.5-16.93q84.71-.08,169.43,0c12.25,0,19.68,5.32,23.59,16.81,4.62,13.55,9,27.17,13.57,40.75,4.75,14.28,11.6,19.25,26.89,19.3,17.63,0.06,35.28.5,52.89-.08,32.71-1.09,55.08,25.17,54.61,54.11-1.22,75.74-1,151.52-.07,227.27,0.33,25.86-20.94,52.28-52.33,52.12C391.55,460.81,323.5,461.05,255.46,461.05Zm0.65-307.69a128.24,128.24,0,0,0-.62,256.49c70.93,0.09,128.5-57.18,128.59-127.92C384.16,211,326.85,153.44,256.1,153.36Z"/><path d="M255.84,358.46a76.86,76.86,0,1,1,76.85-76.69A76.63,76.63,0,0,1,255.84,358.46Zm21.9-80.64a18.24,18.24,0,0,0,18.46-18.15,18.62,18.62,0,0,0-18.33-18.44,18.22,18.22,0,0,0-18.29,18.3A17.82,17.82,0,0,0,277.74,277.82Z"/><text x="0" y="527" fill="#000000" font-size="5px" font-weight="bold" font-family="'Helvetica Neue', Helvetica, Arial-Unicode, Arial, Sans-serif">Created by i cons</text><text x="0" y="532" fill="#000000" font-size="5px" font-weight="bold" font-family="'Helvetica Neue', Helvetica, Arial-Unicode, Arial, Sans-serif">from the Noun Project</text></svg>