<svg xmlns="http://www.w3.org/2000/svg" xmlns:xlink="http://www.w3.org/1999/xlink" version="1.1" x="0px" y="0px" viewBox="0 0 100 125" style="enable-background:new 0 0 100 100;" xml:space="preserve"><path d="M75.5,46.4L63.3,58.6c-6,6-15.8,6-21.9,0c-1.8-1.8-3.1-4-3.8-6.4l4.9-4.9c0.5-0.5,1-0.9,1.5-1.2c-0.5,2.6,0.3,5.5,2.3,7.5  c3.3,3.3,8.7,3.3,12,0l12.2-12.2c3.3-3.3,3.3-8.7,0-12s-8.7-3.3-12,0l-6.7,6.7c-3.5-0.9-7.3-0.7-10.6,0.8c0.1-0.1,0.2-0.2,0.3-0.3  l12.2-12.2c6-6,15.8-6,21.9,0l0,0C81.5,30.6,81.5,40.4,75.5,46.4z M48.2,63.8l-6.7,6.7c-3.3,3.3-8.7,3.3-12,0s-3.3-8.7,0-12  l12.2-12.2c3.3-3.3,8.7-3.3,12,0c2,2,2.8,4.9,2.3,7.5c0.5-0.3,1.1-0.7,1.5-1.2l4.9-4.9c-0.7-2.3-2-4.5-3.8-6.4l0,0  c-6-6-15.8-6-21.9,0L24.5,53.6c-6,6-6,15.8,0,21.9c6,6,15.8,6,21.9,0l12.2-12.2c0.1-0.1,0.2-0.2,0.3-0.3  C55.4,64.5,51.7,64.7,48.2,63.8z"/><text x="0" y="115" fill="#000000" font-size="5px" font-weight="bold" font-family="'Helvetica Neue', Helvetica, Arial-Unicode, Arial, Sans-serif">Created by Mello</text><text x="0" y="120" fill="#000000" font-size="5px" font-weight="bold" font-family="'Helvetica Neue', Helvetica, Arial-Unicode, Arial, Sans-serif">from the Noun Project</text></svg>